<svg id="visual" viewBox="0 0 960 540" width="960" height="540" xmlns="http://www.w3.org/2000/svg" xmlns:xlink="http://www.w3.org/1999/xlink" version="1.1"><rect x="0" y="0" width="960" height="540" fill="#FFFFFF"></rect><defs><linearGradient id="grad1_0" x1="43.8%" y1="100%" x2="100%" y2="0%"><stop offset="14.444444444444446%" stop-color="#ffffff" stop-opacity="1"></stop><stop offset="85.55555555555554%" stop-color="#ffffff" stop-opacity="1"></stop></linearGradient></defs><defs><linearGradient id="grad2_0" x1="0%" y1="100%" x2="56.3%" y2="0%"><stop offset="14.444444444444446%" stop-color="#ffffff" stop-opacity="1"></stop><stop offset="85.55555555555554%" stop-color="#ffffff" stop-opacity="1"></stop></linearGradient></defs><g transform="translate(960, 540)"><path d="M-486 0C-475.1 -64.1 -464.2 -128.3 -436.1 -180.6C-407.9 -233 -362.6 -273.5 -320.3 -320.3C-278 -367.2 -238.9 -420.3 -186 -449C-133.1 -477.7 -66.6 -481.8 0 -486L0 0Z" fill="#bae9d9"></path></g><g transform="translate(0, 0)"><path d="M486 0C438.3 44.3 390.5 88.5 376 155.8C361.5 223 380.3 313.2 343.7 343.7C307 374.1 215 344.7 148.5 358.5C82 372.2 41 429.1 0 486L0 0Z" fill="#bae9d9"></path></g></svg>